# xmcd
#
# Track frame offsets:
#	150
#	13218
#	24699
#	37170
#	47651
#	59017
#	73306
#	84277
#	95756
#	109505
#	122264
#	134327
#	146034
#
# Disc length: 2135 seconds
#
# Revision: 0
# Processed by: cddbd v1.5.2PL0 Copyright (c) Steve Scherf et al.
# Submitted via: dBpowerAMP V4.0
#
DISCID=bd08550d
DTITLE=Ray Charles - The Shadow of Ray Charles [CD2 of 3)
DYEAR=1900
DGENRE=Blues
TTITLE0=Baby, Won't You Please Come Home
TTITLE1=Let's Have A Ball
TTITLE2=Rockin' Chair Blues
TTITLE3=I Wonder Who's Kissing Me
TTITLE4=Back Home
TTITLE5=Kiss me Baby
TTITLE6=A Sentimental Blues
TTITLE7=What Have I Done ?
TTITLE8=This Love Of Mine
TTITLE9=Lonely Baby
TTITLE10=I'm Glad For Your Sake
TTITLE11=How Long, How Long Blues
TTITLE12=Someday
EXTD=
EXTT0=
EXTT1=
EXTT2=
EXTT3=
EXTT4=
EXTT5=
EXTT6=
EXTT7=
EXTT8=
EXTT9=
EXTT10=
EXTT11=
EXTT12=
PLAYORDER=
